<mxfile host="app.diagrams.net" modified="2023-10-24T13:05:08.616Z" agent="Mozilla/5.0 (Windows NT 10.0; Win64; x64) AppleWebKit/537.36 (KHTML, like Gecko) Chrome/118.0.0.0 Safari/537.36" etag="B4wdzCS7KI26x8zLMRYm" version="22.0.6" type="device">
  <diagram name="Page-1" id="HgxZA9Y6GpX3M1Rzw_rJ">
    <mxGraphModel dx="725" dy="852" grid="1" gridSize="10" guides="1" tooltips="1" connect="1" arrows="1" fold="1" page="1" pageScale="1" pageWidth="850" pageHeight="1100" math="0" shadow="0">
      <root>
        <mxCell id="0" />
        <mxCell id="1" parent="0" />
        <mxCell id="cMaAQOgIN0vgOz73kH4q-2" value="" style="edgeStyle=none;curved=1;rounded=0;orthogonalLoop=1;jettySize=auto;html=1;fontSize=12;startSize=8;endSize=8;" edge="1" parent="1" source="BM7QpU8WgZZPGswXD2BU-1" target="cMaAQOgIN0vgOz73kH4q-1">
          <mxGeometry relative="1" as="geometry" />
        </mxCell>
        <mxCell id="BM7QpU8WgZZPGswXD2BU-1" value="start" style="ellipse;whiteSpace=wrap;html=1;" parent="1" vertex="1">
          <mxGeometry x="80" y="60" width="80" height="50" as="geometry" />
        </mxCell>
        <mxCell id="cMaAQOgIN0vgOz73kH4q-4" value="" style="edgeStyle=none;curved=1;rounded=0;orthogonalLoop=1;jettySize=auto;html=1;fontSize=12;startSize=8;endSize=8;" edge="1" parent="1" source="cMaAQOgIN0vgOz73kH4q-1" target="cMaAQOgIN0vgOz73kH4q-3">
          <mxGeometry relative="1" as="geometry" />
        </mxCell>
        <mxCell id="cMaAQOgIN0vgOz73kH4q-1" value="User[] users, Array.short users" style="shape=hexagon;perimeter=hexagonPerimeter2;whiteSpace=wrap;html=1;fixedSize=1;fontSize=16;" vertex="1" parent="1">
          <mxGeometry x="60" y="150" width="120" height="80" as="geometry" />
        </mxCell>
        <mxCell id="cMaAQOgIN0vgOz73kH4q-6" value="" style="edgeStyle=none;curved=1;rounded=0;orthogonalLoop=1;jettySize=auto;html=1;fontSize=12;startSize=8;endSize=8;" edge="1" parent="1" source="cMaAQOgIN0vgOz73kH4q-3" target="cMaAQOgIN0vgOz73kH4q-5">
          <mxGeometry relative="1" as="geometry" />
        </mxCell>
        <mxCell id="cMaAQOgIN0vgOz73kH4q-3" value="Daftar pengguna setelah diurutkan berdasarkan Username" style="shape=parallelogram;perimeter=parallelogramPerimeter;whiteSpace=wrap;html=1;fixedSize=1;fontSize=16;" vertex="1" parent="1">
          <mxGeometry x="10" y="280" width="220" height="60" as="geometry" />
        </mxCell>
        <mxCell id="cMaAQOgIN0vgOz73kH4q-11" value="" style="edgeStyle=none;curved=1;rounded=0;orthogonalLoop=1;jettySize=auto;html=1;fontSize=12;startSize=8;endSize=8;" edge="1" parent="1" source="cMaAQOgIN0vgOz73kH4q-5" target="cMaAQOgIN0vgOz73kH4q-10">
          <mxGeometry relative="1" as="geometry" />
        </mxCell>
        <mxCell id="cMaAQOgIN0vgOz73kH4q-5" value="User user : users" style="rhombus;whiteSpace=wrap;html=1;fontSize=16;" vertex="1" parent="1">
          <mxGeometry x="60" y="380" width="120" height="120" as="geometry" />
        </mxCell>
        <mxCell id="cMaAQOgIN0vgOz73kH4q-16" value="" style="edgeStyle=none;curved=1;rounded=0;orthogonalLoop=1;jettySize=auto;html=1;fontSize=12;startSize=8;endSize=8;" edge="1" parent="1" source="cMaAQOgIN0vgOz73kH4q-10" target="cMaAQOgIN0vgOz73kH4q-15">
          <mxGeometry relative="1" as="geometry" />
        </mxCell>
        <mxCell id="cMaAQOgIN0vgOz73kH4q-10" value="print user.getUsername" style="shape=dataStorage;whiteSpace=wrap;html=1;fixedSize=1;fontSize=16;" vertex="1" parent="1">
          <mxGeometry x="10" y="550" width="220" height="50" as="geometry" />
        </mxCell>
        <mxCell id="cMaAQOgIN0vgOz73kH4q-12" value="" style="endArrow=classic;html=1;rounded=0;fontSize=12;startSize=8;endSize=8;curved=1;exitX=1;exitY=0.5;exitDx=0;exitDy=0;entryX=1;entryY=0.5;entryDx=0;entryDy=0;" edge="1" parent="1" source="cMaAQOgIN0vgOz73kH4q-5" target="cMaAQOgIN0vgOz73kH4q-3">
          <mxGeometry width="50" height="50" relative="1" as="geometry">
            <mxPoint x="150" y="460" as="sourcePoint" />
            <mxPoint x="200" y="410" as="targetPoint" />
            <Array as="points">
              <mxPoint x="340" y="440" />
            </Array>
          </mxGeometry>
        </mxCell>
        <mxCell id="cMaAQOgIN0vgOz73kH4q-13" value="Ya" style="text;html=1;strokeColor=none;fillColor=none;align=center;verticalAlign=middle;whiteSpace=wrap;rounded=0;fontSize=16;" vertex="1" parent="1">
          <mxGeometry x="110" y="510" width="60" height="30" as="geometry" />
        </mxCell>
        <mxCell id="cMaAQOgIN0vgOz73kH4q-14" value="Tidak" style="text;html=1;strokeColor=none;fillColor=none;align=center;verticalAlign=middle;whiteSpace=wrap;rounded=0;fontSize=16;" vertex="1" parent="1">
          <mxGeometry x="220" y="380" width="60" height="30" as="geometry" />
        </mxCell>
        <mxCell id="cMaAQOgIN0vgOz73kH4q-15" value="end" style="ellipse;whiteSpace=wrap;html=1;fontSize=16;" vertex="1" parent="1">
          <mxGeometry x="80" y="650" width="80" height="40" as="geometry" />
        </mxCell>
      </root>
    </mxGraphModel>
  </diagram>
</mxfile>
